#!OML:ASF E:\acrobat2\Project_11_07_03\Capture day 1\Session 1\Acrobat.ASF
:FULLY-SPECIFIED
:DEGREES
49
root 3.23189 16.9509 -15.9819 3.59991 -7.5594 1.42589
lowerback -6.50649 1.24204 2.94738
upperback 1.21231 1.49431 -1.6655
thorax 5.0358 0.852141 -3.22894
lowerneck 0.887994 -1.47519 -0.400399
upperneck 2.45914 -2.01521 2.40876
head 0.632846 -0.995601 0.793968
rclavicle -7.0817e-016 -5.36719e-015
rhumerus -37.8204 -9.98703 -78.3287
rradius 24.5885
rwrist 10.7837
rhand 3.63349 -26.0862
rfingers 7.12502
rthumb 29.0657 -53.8386
lclavicle -7.0817e-016 -5.36719e-015
lhumerus -30.0619 -5.96798 83.2012
lradius 22.1163
lwrist 7.73568
lhand -7.87906 -12.1015
lfingers 7.12502
lthumb 18.0252 17.0833
rfemur -10.6577 5.45898 22.7587
rtibia 38.5484
rfoot -45.6879 -18.6855
rtoes 3.71387
lfemur -27.147 0.352071 -15.2662
ltibia 42.6096
lfoot -18.493 -9.94335
ltoes 36.117
50
root 3.22705 16.9494 -15.9786 3.59448 -7.50675 1.44479
lowerback -6.50257 1.2271 2.93225
upperback 1.22415 1.47552 -1.6619
thorax 5.04392 0.842647 -3.21871
lowerneck 0.85453 -1.47878 -0.360988
upperneck 2.48626 -2.01979 2.36995
head 0.645793 -0.997372 0.775101
rclavicle 3.10974e-014 -1.42131e-014
rhumerus -37.8376 -9.961 -78.3381
rradius 24.6515
rwrist 10.7703
rhand 3.7607 -26.2332
rfingers 7.12502
rthumb 29.1872 -53.9646
lclavicle 3.10974e-014 -1.42131e-014
lhumerus -30.095 -5.96211 83.2011
lradius 22.0508
lwrist 7.70365
lhand -7.84857 -12.1116
lfingers 7.12502
lthumb 18.0545 17.0705
rfemur -10.6242 5.54459 22.7832
rtibia 38.5467
rfoot -45.8037 -18.7082
rtoes 4.03579
lfemur -27.1475 0.33637 -15.271
ltibia 42.6119
lfoot -18.4623 -9.98361
ltoes 36.191
51
root 3.22207 16.9483 -15.9755 3.59477 -7.44851 1.46127
lowerback -6.48861 1.21131 2.91019
upperback 1.2146 1.45619 -1.65345
thorax 5.02358 0.831805 -3.19982
lowerneck 0.881034 -1.48633 -0.351278
upperneck 2.50114 -2.02978 2.35685
head 0.645817 -1.00243 0.769544
rclavicle -5.18704e-015 1.97791e-014
rhumerus -37.8906 -9.95533 -78.3202
rradius 24.7063
rwrist 10.7767
rhand 4.01574 -26.6197
rfingers 7.12502
rthumb 29.4307 -54.3086
lclavicle -5.18704e-015 1.97791e-014
lhumerus -30.1701 -5.94928 83.2076
lradius 21.9934
lwrist 7.66907
lhand -7.81454 -12.0629
lfingers 7.12502
lthumb 18.0873 17.1162
rfemur -10.5968 5.62558 22.8112
rtibia 38.5428
rfoot -45.908 -18.7556
rtoes 4.25835
lfemur -27.1568 0.332809 -15.275
ltibia 42.6166
lfoot -18.4416 -9.99905
ltoes 36.1035
52
root 3.21698 16.9476 -15.9726 3.60147 -7.39117 1.47063
lowerback -6.46354 1.19556 2.88956
upperback 1.18531 1.43677 -1.63885
thorax 4.97616 0.820131 -3.17559
lowerneck 0.944651 -1.49354 -0.394366
upperneck 2.51092 -2.04021 2.39101
head 0.639404 -1.00815 0.787662
rclavicle 2.39784e-015 -2.5842e-015
rhumerus -37.9706 -9.94736 -78.2835
rradius 24.7511
rwrist 10.7934
rhand 4.25569 -26.9772
rfingers 7.12502
rthumb 29.6598 -54.6256
lclavicle 2.39784e-015 -2.5842e-015
lhumerus -30.276 -5.90849 83.2166
lradius 21.9317
lwrist 7.628
lhand -7.78475 -11.9721
lfingers 7.12502
lthumb 18.1159 17.2042
rfemur -10.5756 5.69517 22.8443
rtibia 38.535
rfoot -45.994 -18.8245
rtoes 4.31876
lfemur -27.1717 0.340503 -15.2728
ltibia 42.6247
lfoot -18.4387 -9.98288
ltoes 35.8297
53
root 3.21165 16.9476 -15.9697 3.61698 -7.34063 1.46367
lowerback -6.43405 1.18313 2.88346
upperback 1.14797 1.42044 -1.61876
thorax 4.91834 0.810053 -3.15359
lowerneck 1.00053 -1.49132 -0.476035
upperneck 2.54078 -2.0397 2.47454
head 0.641425 -1.00824 0.82749
rclavicle -1.84e-014 -8.54774e-015
rhumerus -38.056 -9.92236 -78.2447
rradius 24.7932
rwrist 10.8112
rhand 4.37323 -27.1153
rfingers 7.12502
rthumb 29.772 -54.7436
lclavicle -1.84e-014 -8.54774e-015
lhumerus -30.3824 -5.83487 83.2219
lradius 21.8589
lwrist 7.58559
lhand -7.76683 -11.8644
lfingers 7.12502
lthumb 18.1332 17.3104
rfemur -10.5636 5.76639 22.8948
rtibia 38.5234
rfoot -46.064 -18.9261
rtoes 4.20692
lfemur -27.1929 0.346969 -15.2512
ltibia 42.6354
lfoot -18.4488 -9.94773
ltoes 35.4912
54
root 3.20585 16.9479 -15.967 3.63743 -7.30013 1.44318
lowerback -6.40554 1.1759 2.88918
upperback 1.11486 1.40993 -1.59566
thorax 4.86623 0.803317 -3.13443
lowerneck 1.03321 -1.48146 -0.571263
upperneck 2.58222 -2.02997 2.58388
head 0.651225 -1.00348 0.877538
rclavicle -1.91548e-014 -9.74045e-015
rhumerus -38.1233 -9.87825 -78.2146
rradius 24.8314
rwrist 10.8373
rhand 4.25631 -26.8225
rfingers 7.12502
rthumb 29.6604 -54.4708
lclavicle -1.91548e-014 -9.74045e-015
lhumerus -30.4715 -5.73205 83.2195
lradius 21.7823
lwrist 7.53868
lhand -7.76469 -11.7637
lfingers 7.12502
lthumb 18.1352 17.4108
rfemur -10.5567 5.8538 22.9637
rtibia 38.51
rfoot -46.1284 -19.063
rtoes 3.99716
lfemur -27.2161 0.351613 -15.2116
ltibia 42.6464
lfoot -18.4601 -9.90635
ltoes 35.1798
55
root 3.19958 16.9484 -15.9642 3.655 -7.26991 1.4245
lowerback -6.38139 1.17357 2.89281
upperback 1.09314 1.40615 -1.5744
thorax 4.82904 0.800294 -3.11518
lowerneck 1.05063 -1.45973 -0.643465
upperneck 2.63077 -2.0043 2.67954
head 0.664993 -0.99047 0.91953
rclavicle 1.62941e-014 -8.54774e-015
rhumerus -38.1528 -9.83487 -78.1907
rradius 24.8437
rwrist 10.8836
rhand 3.92637 -26.1579
rfingers 7.12502
rthumb 29.3454 -53.8617
lclavicle 1.62941e-014 -8.54774e-015
lhumerus -30.5422 -5.60661 83.2072
lradius 21.709
lwrist 7.46861
lhand -7.76684 -11.6928
lfingers 7.12502
lthumb 18.1332 17.4819
rfemur -10.5477 5.95585 23.0336
rtibia 38.4979
rfoot -46.1976 -19.2095
rtoes 3.79508
lfemur -27.2306 0.348061 -15.171
ltibia 42.6543
lfoot -18.4718 -9.8704
ltoes 34.9518
56
root 3.19314 16.9487 -15.961 3.66499 -7.2485 1.41596
lowerback -6.36539 1.17538 2.89579
upperback 1.08637 1.40816 -1.56245
thorax 4.8128 0.800832 -3.10444
lowerneck 1.06334 -1.43718 -0.682304
upperneck 2.67276 -1.97665 2.74399
head 0.67664 -0.976378 0.946249
rclavicle -1.64556e-014 6.21202e-015
rhumerus -38.1412 -9.80735 -78.1775
rradius 24.8297
rwrist 10.9437
rhand 3.5865 -25.5007
rfingers 7.12502
rthumb 29.0209 -53.2608
lclavicle -1.64556e-014 6.21202e-015
lhumerus -30.5989 -5.48645 83.1834
lradius 21.6485
lwrist 7.38175
lhand -7.77089 -11.6743
lfingers 7.12502
lthumb 18.1293 17.5008
rfemur -10.5321 6.05229 23.0903
rtibia 38.4898
rfoot -46.2659 -19.337
rtoes 3.63973
lfemur -27.2298 0.327058 -15.1393
ltibia 42.6564
lfoot -18.4872 -9.84836
ltoes 34.846
57
root 3.18689 16.9489 -15.9574 3.66894 -7.23324 1.41718
lowerback -6.35787 1.17751 2.90416
upperback 1.09235 1.41051 -1.56227
thorax 4.8152 0.802359 -3.10879
lowerneck 1.06938 -1.42377 -0.694086
upperneck 2.70165 -1.96015 2.77639
head 0.684802 -0.967861 0.958389
rclavicle -2.38511e-014 -1.5704e-014
rhumerus -38.0969 -9.78935 -78.1825
rradius 24.8026
rwrist 11.0104
rhand 3.33084 -25.0526
rfingers 7.12502
rthumb 28.7767 -52.8545
lclavicle -2.38511e-014 -1.5704e-014
lhumerus -30.6486 -5.39446 83.1491
lradius 21.6076
lwrist 7.30352
lhand -7.77399 -11.721
lfingers 7.12502
lthumb 18.1263 17.4544
rfemur -10.5124 6.12906 23.1305
rtibia 38.4868
rfoot -46.323 -19.4382
rtoes 3.54996
lfemur -27.2157 0.289117 -15.1178
ltibia 42.6519
lfoot -18.5056 -9.83937
ltoes 34.8503
